{"title":"Evidence 2011 DVDRIP XViD AC3-26K","uid":7068981,"size":1876720039,"categoryP":"video","categoryS":"movies","magnet":"?xt=urn:btih:d537a964fd1979628bbcae649cfadabd1dd67ded&amp;dn=Evidence+2011+DVDRIP+XViD+AC3-26K&amp;tr=udp%3A%2F%2Ftracker.openbittorrent.com%3A80&amp;tr=udp%3A%2F%2Fopen.demonii.com%3A1337&amp;tr=udp%3A%2F%2Ftracker.coppersurfer.tk%3A6969&amp;tr=udp%3A%2F%2Fexodus.desync.com%3A6969","seeders":0,"leechers":1,"uploader":"MisterNobody","files":4,"time":1330602146,"description":"Evidence 2011 DVDRIP XViD AC3-26K\n\nImdb: &lt;a href=&quot;\nhttp://www.imdb.com/title/tt1640218/&quot; rel=&quot;nofollow&quot; target=&quot;_NEW&quot;&gt;\nhttp://www.imdb.com/title/tt1640218/&lt;/a&gt;\n\nPlot:\nRyan is making a documentary on his friend, Brett, about camping for the first time. However, once \n\nthey begin camping, they discover that there is a mysterious figure that is hunting them.\n\nSources:\nDVDR THNXS!! \n\nNotes:\nthe dvdr it self had ac3 2.0 as the audioo no 6 channels.... with that video quality is great.. so \n\nenjoy!\n\nGreetz:\nXtreme \n\nEncode|FYA|ILLUMANTI|CM8|RX|VISION|HDSCENE|NIGHTMAREZ|xTriLL|DTRG|CRYS|REMIXHD|BIDA|RX|REFILL|INSPiRAL\n\n|SIC|ZOMBIESZ|HOPE|Anonymous|GooN\nTo all the people who have helped me :P you know who you are\n\nAnything to offer email us @: &lt;a class=&quot;__cf_email__&quot; href=&quot;/cdn-cgi/l/email-protection&quot; data-cfemail=&quot;f5c7c39eb59d80869d98949c99db9890&quot;&gt;[email&amp;#160;protected]&lt;/a&gt;&lt;script cf-hash='f9e31' type=&quot;text/javascript&quot;&gt;\n/* &lt;![CDATA[ */!function(){try{var t=&quot;currentScript&quot;in document?document.currentScript:function(){for(var t=document.getElementsByTagName(&quot;script&quot;),e=t.length;e--;)if(t[e].getAttribute(&quot;cf-hash&quot;))return t[e]}();if(t&amp;&amp;t.previousSibling){var e,r,n,i,c=t.previousSibling,a=c.getAttribute(&quot;data-cfemail&quot;);if(a){for(e=&quot;&quot;,r=parseInt(a.substr(0,2),16),n=2;a.length-n;n+=2)i=parseInt(a.substr(n,2),16)^r,e+=String.fromCharCode(i);e=document.createTextNode(e),c.parentNode.replaceChild(e,c)}}}catch(u){}}();/* ]]&gt; */&lt;/script&gt;\n\nVideo\nID : 0\nFormat : MPEG-4 Visual\nFormat profile : Advanced Simple@L5\nFormat settings, BVOP : 2\nFormat settings, QPel : No\nFormat settings, GMC : No warppoints\nFormat settings, Matrix : Default (H.263)\nMuxing mode : Packed bitstream\nCodec ID : XVID\nCodec ID/Hint : XviD\nDuration : 1h 18mn\nBit rate : 2 902 Kbps\nWidth : 720 pixels\nHeight : 400 pixels\nDisplay aspect ratio : 16:9\nFrame rate : 23.976 fps\nColor space : YUV\nChroma subsampling : 4:2:0\nBit depth : 8 bits\nScan type : Progressive\nCompression mode : Lossy\nBits/(Pixel*Frame) : 0.420\nStream size : 1.59 GiB (94%)\nWriting library : XviD 64\n\nAudio\nID : 1\nFormat : AC-3\nFormat/Info : Audio Coding 3\nMode extension : CM (complete main)\nCodec ID : 2000\nDuration : 1h 18mn\nBit rate mode : Constant\nBit rate : 192 Kbps\nChannel(s) : 2 channels\nChannel positions : Front: L R\nSampling rate : 44.1 KHz\nBit depth : 16 bits\nCompression mode : Lossy\nStream size : 108 MiB (6%)\nAlignment : Aligned on interleaves\nInterleave, duration : 70 ms (1.67 video frames)\nInterleave, preload duration : 208 ms\nTitle : Title 06\n","torrent":{"xt":"urn:btih:d537a964fd1979628bbcae649cfadabd1dd67ded","amp;dn":"Evidence+2011+DVDRIP+XViD+AC3-26K","amp;tr":["udp%3A%2F%2Ftracker.openbittorrent.com%3A80","udp%3A%2F%2Fopen.demonii.com%3A1337","udp%3A%2F%2Ftracker.coppersurfer.tk%3A6969","udp%3A%2F%2Fexodus.desync.com%3A6969"],"infoHash":"d537a964fd1979628bbcae649cfadabd1dd67ded","infoHashBuffer":{"type":"Buffer","data":[213,55,169,100,253,25,121,98,139,188,174,100,156,250,218,189,29,214,125,237]},"announce":[],"urlList":[]}}